<svg id="Layer_1" data-name="Layer 1" xmlns="http://www.w3.org/2000/svg" viewBox="0 0 16 16"><defs><style>.cls-1{fill:#fff;}.cls-2{fill:#afabaa;}.cls-3{fill:#2d8aba;}.cls-10,.cls-11,.cls-4,.cls-7,.cls-8,.cls-9{fill:none;}.cls-11,.cls-4,.cls-7,.cls-8,.cls-9{stroke:#341514;stroke-miterlimit:10;}.cls-11,.cls-4{stroke-linecap:round;}.cls-4,.cls-8{stroke-width:0.47px;}.cls-5{fill:#351211;}.cls-6{fill:#341514;}.cls-11,.cls-7{stroke-width:0.34px;}.cls-9{stroke-width:0.23px;}.cls-12{fill:#b42025;}.cls-13{fill:#e13a26;}</style></defs><circle class="cls-1" cx="8" cy="8" r="8"/><path class="cls-2" d="M7.33,3S7.57,5.6,10,5.14a1.66,1.66,0,0,0,1.17-2.26L8.83.87A4.08,4.08,0,0,0,7.76,2.71Z" transform="translate(0 0)"/><path class="cls-3" d="M9.46,7.52s1.88,2.64-.42,3.94S5.8,9.88,5.8,9.88l.72-1.62,2.05-.8Z" transform="translate(0 0)"/><path class="cls-1" d="M7.78,7.93a1.9,1.9,0,0,1,.37,1.29l.06-1.64Z" transform="translate(0 0)"/><path class="cls-1" d="M8.26,2.54A2.61,2.61,0,0,1,8.84,1a1.92,1.92,0,0,0-1,1.64Z" transform="translate(0 0)"/><path class="cls-4" d="M6.24,8.25A1.58,1.58,0,0,1,5,6.94L4.54,3.21a3.14,3.14,0,0,1,2.05.25L7.74,2.8S8,1.35,8.83.87l3.58,3.07" transform="translate(0 0)"/><circle class="cls-5" cx="9.64" cy="4.43" r="0.37"/><circle class="cls-5" cx="6.98" cy="5.88" r="0.37"/><path class="cls-6" d="M9,6a.46.46,0,0,1,0,.44.74.74,0,0,1-.26.29.54.54,0,0,1-.35.11.39.39,0,0,1-.3-.16.39.39,0,0,0,.56-.06c.16-.14.2-.37.09-.45a.14.14,0,0,1,0-.2.13.13,0,0,1,.2,0L9,6Z" transform="translate(0 0)"/><path class="cls-6" d="M9,6c0,.13.28.14.46,0a.41.41,0,0,0,.19-.54.44.44,0,0,1,.09.34.64.64,0,0,1-.2.31.74.74,0,0,1-.34.18.48.48,0,0,1-.42-.15l0,0a.15.15,0,0,1,0-.21A.14.14,0,0,1,9,6S9,6,9,6Z" transform="translate(0 0)"/><path class="cls-5" d="M8.89,6.2,8.3,6a.07.07,0,0,1,0-.11l.5-.4a.07.07,0,0,1,.11,0L9,6.13A.07.07,0,0,1,8.89,6.2Z" transform="translate(0 0)"/><path class="cls-6" d="M6.73,3.66A4.32,4.32,0,0,0,6.2,4a1.75,1.75,0,0,0-.47.43,2.19,2.19,0,0,1,.35-.56,5.11,5.11,0,0,1,.45-.48Z" transform="translate(0 0)"/><path class="cls-6" d="M7.7,2.71a5,5,0,0,1,1.38-.22A5.11,5.11,0,0,0,7.83,3Z" transform="translate(0 0)"/><circle class="cls-6" cx="9.07" cy="9.52" r="0.35"/><circle class="cls-6" cx="11.4" cy="9.52" r="0.35"/><path class="cls-6" d="M12.79,11.17a1,1,0,0,0,1-1s0,0,0,0H11.83s0,0,0,0A1,1,0,0,0,12.79,11.17Z" transform="translate(0 0)"/><path class="cls-7" d="M11.74,13.69" transform="translate(0 0)"/><path class="cls-8" d="M12.7,13a4.91,4.91,0,0,0,1.12-2.69.2.2,0,0,0-.2-.22h-1L12,5.42a5.32,5.32,0,0,0-1.79,2h-2a4.68,4.68,0,0,1-1.95.75C6.2,10,3.49,12.45,3.49,12.45" transform="translate(0 0)"/><polyline class="cls-7" points="6.34 8.21 8.29 9.17 8.29 7.46"/><path class="cls-9" d="M12.78,12.88s-2.7.42-3.43-1.16" transform="translate(0 0)"/><path class="cls-6" d="M9.09,12.11a.4.4,0,0,1,.22-.49.49.49,0,0,1,.29,0,.48.48,0,0,1,.23.13C9.46,11.78,9.31,11.8,9.09,12.11Z" transform="translate(0 0)"/><path class="cls-10" d="M10.36,7.49" transform="translate(0 0)"/><polygon class="cls-6" points="11.82 10.32 10.75 10.22 11.82 10.11 11.82 10.32"/><polygon class="cls-6" points="12.95 11.12 12.79 11.91 12.62 11.12 12.95 11.12"/><path class="cls-11" d="M8.35,2.42" transform="translate(0 0)"/><path class="cls-4" d="M12.07,3.64a6.37,6.37,0,0,1,2.5,5,6.22,6.22,0,0,1-12.44,0" transform="translate(0 0)"/><path class="cls-11" d="M8.35,2.42" transform="translate(0 0)"/><path class="cls-12" d="M3.56,7H2.82a.13.13,0,0,1-.13-.14V6.16A.13.13,0,0,0,2.55,6H1.91a.13.13,0,0,0-.14.13v.73A.13.13,0,0,1,1.64,7H.9a.13.13,0,0,0-.13.13v.65A.13.13,0,0,0,.9,8h.74a.13.13,0,0,1,.13.13v.73A.14.14,0,0,0,1.91,9h.64a.14.14,0,0,0,.14-.14V8.08A.13.13,0,0,1,2.82,8h.74a.13.13,0,0,0,.13-.14V7.16A.13.13,0,0,0,3.56,7Z" transform="translate(0 0)"/><path class="cls-13" d="M3.36,7H2.63a.14.14,0,0,1-.14-.14V6.16A.13.13,0,0,0,2.36,6H1.71a.13.13,0,0,0-.14.13v.73A.13.13,0,0,1,1.44,7H.71a.13.13,0,0,0-.14.13v.65A.14.14,0,0,0,.71,8h.73a.13.13,0,0,1,.13.13v.73A.14.14,0,0,0,1.71,9h.65a.13.13,0,0,0,.13-.14V8.08A.13.13,0,0,1,2.63,8h.73a.13.13,0,0,0,.13-.14V7.16A.13.13,0,0,0,3.36,7Z" transform="translate(0 0)"/></svg>